# xmcd
#
# Track frame offsets:
#	150
#	14290
#	28565
#	43010
#	60647
#	74355
#	89477
#	104275
#	118487
#	137015
#	153305
#
# Disc length: 2217 seconds
#
# Revision: 3
# Processed by: cddbd v1.5.1PL2 Copyright (c) Steve Scherf et al.
# Submitted via: dBpowerAMP V4.0
#
DISCID=9508a70b
DTITLE=Terri Clark - Just The Same
DYEAR=1996
DGENRE=Country
TTITLE0=Emotional Girl
TTITLE1=Poor, Poor Pitiful Me
TTITLE2=Just The Same
TTITLE3=Something In The Water
TTITLE4=Neon Flame
TTITLE5=Any Woman
TTITLE6=Twang Thang
TTITLE7=You Do Or You Don't
TTITLE8=Keeper Of The Flame
TTITLE9=Not What I Wanted To Hear
TTITLE10=Hold Your Horses
EXTD=
EXTT0=
EXTT1=
EXTT2=
EXTT3=
EXTT4=
EXTT5=
EXTT6=
EXTT7=
EXTT8=
EXTT9=
EXTT10=
PLAYORDER=
